<?xml version="1.0" encoding="UTF-8" standalone="no"?>
<!-- Created with Inkscape (http://www.inkscape.org/) -->

<svg
   xmlns:dc="http://purl.org/dc/elements/1.1/"
   xmlns:cc="http://creativecommons.org/ns#"
   xmlns:rdf="http://www.w3.org/1999/02/22-rdf-syntax-ns#"
   xmlns:svg="http://www.w3.org/2000/svg"
   xmlns="http://www.w3.org/2000/svg"
   xmlns:xlink="http://www.w3.org/1999/xlink"
   xmlns:sodipodi="http://sodipodi.sourceforge.net/DTD/sodipodi-0.dtd"
   xmlns:inkscape="http://www.inkscape.org/namespaces/inkscape"
   width="210mm"
   height="297mm"
   viewBox="0 0 210 297"
   version="1.1"
   id="svg8"
   inkscape:version="0.92.4 (5da689c313, 2019-01-14)"
   sodipodi:docname="pointer.svg">
  <defs
     id="defs2">
    <linearGradient
       inkscape:collect="always"
       id="linearGradient920">
      <stop
         style="stop-color:#9289be;stop-opacity:1"
         offset="0"
         id="stop916" />
      <stop
         id="stop924"
         offset="0.41333491"
         style="stop-color:#d42120;stop-opacity:1" />
      <stop
         style="stop-color:#cdc524;stop-opacity:1"
         offset="0.76833028"
         id="stop926" />
      <stop
         style="stop-color:#428946;stop-opacity:1"
         offset="1"
         id="stop918" />
    </linearGradient>
    <linearGradient
       inkscape:collect="always"
       xlink:href="#linearGradient920"
       id="linearGradient922"
       x1="21.60741"
       y1="3.4448876"
       x2="21.571218"
       y2="53.136429"
       gradientUnits="userSpaceOnUse"
       gradientTransform="matrix(5.5249563,0,0,5.5249563,-14.039168,-8.4222049)" />
  </defs>
  <sodipodi:namedview
     id="base"
     pagecolor="#ffffff"
     bordercolor="#666666"
     borderopacity="1.0"
     inkscape:pageopacity="0.0"
     inkscape:pageshadow="2"
     inkscape:zoom="0.49497475"
     inkscape:cx="399.05942"
     inkscape:cy="494.14657"
     inkscape:document-units="mm"
     inkscape:current-layer="layer1"
     showgrid="false"
     inkscape:window-width="1858"
     inkscape:window-height="1057"
     inkscape:window-x="54"
     inkscape:window-y="-8"
     inkscape:window-maximized="1" />
  <metadata
     id="metadata5">
    <rdf:RDF>
      <cc:Work
         rdf:about="">
        <dc:format>image/svg+xml</dc:format>
        <dc:type
           rdf:resource="http://purl.org/dc/dcmitype/StillImage" />
        <dc:title></dc:title>
      </cc:Work>
    </rdf:RDF>
  </metadata>
  <g
     inkscape:label="Layer 1"
     inkscape:groupmode="layer"
     id="layer1">
    <path
       id="path894-1"
       style="fill:none;fill-opacity:1;stroke:url(#linearGradient922);stroke-width:9.74540901;stroke-linecap:round;stroke-linejoin:round;stroke-miterlimit:4;stroke-dasharray:none;stroke-opacity:1"
       d="m 151.30181,172.74296 a 9.967404,9.967404 0 0 1 -9.9674,9.96741 9.967404,9.967404 0 0 1 -9.96741,-9.96741 9.967404,9.967404 0 0 1 9.96741,-9.9674 9.967404,9.967404 0 0 1 9.9674,9.9674 z m -50.75991,0 a 9.967404,9.967404 0 0 1 -9.967401,9.96741 9.967404,9.967404 0 0 1 -9.967403,-9.96741 9.967404,9.967404 0 0 1 9.967403,-9.9674 9.967404,9.967404 0 0 1 9.967401,9.9674 z M 39.260819,61.255677 H 59.749375 L 70.270522,142.47159 H 151.48641 M 79.130436,81.190487 h 72.171384 l -10.8903,41.530873 H 85.959956 M 105.34084,10.610648 C 51.987276,10.611206 8.7359043,53.201711 8.7356557,105.73975 c 0.010497,0.33885 0.023205,0.67768 0.037017,1.01641 l -0.1513286,-0.27691 c 0.068841,1.77976 0.1883458,3.5538 0.3312211,5.32762 0.047515,0.58958 0.1009962,1.17871 0.1598923,1.76732 0.2274072,2.41445 0.532882,4.82315 0.8907995,7.22625 0.07647,0.52316 0.157351,1.04564 0.242656,1.56744 9.389421,58.47519 56.118807,113.50746 94.974907,162.63793 l -0.0799,0.14846 c 0.0326,-0.0414 0.0672,-0.0844 0.1,-0.12558 0.0326,0.0414 0.0674,0.0844 0.1,0.12558 v 0 c 37.84275,-47.84917 83.07382,-101.44471 94.08696,-158.21825 1.6441,-6.95004 2.48881,-14.06019 2.51819,-21.19626 -2.9e-4,-52.538027 -43.25166,-95.128537 -96.6052,-95.129106 z"
       inkscape:connector-curvature="0" />
  </g>
</svg>
